<svg id="Layer_1" data-name="Layer 1" xmlns="http://www.w3.org/2000/svg" viewBox="0 0 220 234.1"><defs><style>.cls-1{fill-rule:evenodd;}</style></defs><path class="cls-1" d="M85.89,203c0,6.87-14.51,18.74-17.89,18.35-4.26-.5-6.78-4.39-10.09-7.67-1.89-1.86-2.44-2.67-4.72-4.81L27.72,183.47c-5.64-5.13-10.72-13.06-17.61-16,.5-9,16.16-20.19,17.36-20.35,4-.51,17.18,14.24,20.43,17.25,6.65,6.15,12.6,13,18.86,19.27l14.4,14.16c2.79,2.52,3,1.53,4.73,5.2Zm70.58-46.14c.95-9.07,1.67-6.21,11.78-17.29,5.43-5.94,9.46-1.47,12,1.49a16.12,16.12,0,0,0,1.55,1.63c7,7,27.25,24.87,29.91,32.6s-2.48,14.83-9.38,17.5c-4.6,1.77-7,.14-10.38-2-8-5.06-26.59-27.3-35.51-33.93Zm-88.95-66c16-3.43,12.27,23.24,31.28,3.67C134.36,57.84,132.9,52.91,151,71.82c7.53,7.86,10.27,13.07,16.27,19.73l5.07,6.59c13.59,17.2,6.38,20.49-3.68,30.18-13.16,12.69-34.19,39.05-51.06,44.28-11.74,3.64-8.13-.19-16.16,8.15-2.94,3.05-9.14,8.62-11.39,11.76-5.67-2.52-9.74-6.24-14-10.82a38.24,38.24,0,0,0-3.23-3.15L60.79,166.26c-1.87-1.89-1.73-1.56-3.31-3l-5.77-5.86c-1.67-1.71-1.24-1.62-3-3.35l-8.49-8.24c.83-6.31,5.34-8.57,8.78-12.2,2.64-2.78,7.45-6.67,9.82-10.31,5.68-8.75,0-23.14,8.71-32.48Zm-36-55c6.31,1.67,17.07,20.29,22.89,19.49,2.76-.38,19.34-17.29,21-21.73-3.79-6.34-12.82-13.14-18.28-18.24-3.17-3-2.16-3.55-.2-7.1,4.26-.59,15.22.48,18.79,2.32s8.84,7.08,11.24,10c4.94,6,5.07,5.11,6.57,14.66,3.41,21.6-8.58,10.3,8.36,27.58,9.82,10,9.39,7.73-3.51,20.66-2.56,2.55-5.55,6.55-8.58,8.76-5.82-.92-12.62-8.89-16.54-12.43-9.91-8.94-25-.24-39.27-17.91C32.1,59.52,19,34.43,31.52,35.76Zm79.4,25.4c-14.8-13.62-7.47-12.7-9.73-29.67-.45-3.4-3.79-9.8-5.72-13.2C91.86,12,80.59,3.48,73.35,1.29,69.24.05,46.28-2.59,41.13,7c4.2,9.26,16.74,19.07,23.18,25.4-2.38,7.41-4.61,8.53-10.55,13-3.59-1.83-17.95-16.62-23-21.77-1.89-1.93.32-.5-2.55-2.46C19.85,23.66,20,31.58,20,40.92c0,15.73,1.94,14.64,5.63,21.82,4.18,8.11,16.78,17.1,24.06,18.19,6,.89,7.19.42,11.13,2.74-.62,6-3.64,7.71-4.93,15.53-1.1,6.68-.15,11.5-2.71,17.37-1.75,4-1.1,3.33-4.24,6.33-2.07,2-2.62,2.7-5.29,5.29s-7.89,7.93-11,9.33c-3.93-3-.34-2.2-5.81-3.6-2.1,4-10.26,11.43-14.22,15.13S-4,162.24,1.29,167.58C14.64,181,64.4,232.32,70.16,234.1c2.26-4.3,22.55-24,26.27-26.91-.29-13.15-1.74-9,8.84-19.43,3.91-3.85,5.59-6,11.18-8,7.15-2.56,10.64.58,20.24-8.26,12.62-11.64,10.57-13.8,21.19-2.8l1.47,1.7c.15.16.34.41.49.57l11.68,11.62c.17.14.43.32.59.46,2.62,2.33-1.56-1.66,1.14,1l5.26,5.32c.16.16.36.4.51.56l7,6.71c2,1.68,3.79,2,6.9,2.65,23.27,4.83,30.78-15.33,25.37-29.66-2.1-5.54-36-36.28-36.64-38.7,1-11.26,5.66-5.93,6.63-13.78.92-7.54-4.61-16-8.49-21.22-1.66-2.23-1.78-3.22-3.79-5.76-2.4-3-1.76-2.61-3.89-5.64-1.86-2.66-2-1.82-4.57-4.92-6.88-8.17-20.14-26.49-32.33-27.29-11.4-.75-15.08,17.33-24.33,8.82Z"/></svg>