<svg id="Layer_1" data-name="Layer 1" xmlns="http://www.w3.org/2000/svg" viewBox="0 0 228.73 144.87"><defs><style>.cls-1{fill-rule:evenodd;}</style></defs><path class="cls-1" d="M164.43,134.57c-1.29-7-.91-10.41,6.19-10.41L195,124l5.93,1,.05,9.38c-5.49,3.66-31.16,3.07-36.57.22ZM28,134.46c-3.4-13.28,2.28-10.3,30.43-10.3,9.52,0,9,12.23,1.06,12.23-8.25,0-26.23,1.26-31.49-1.93Zm166-18.35c-28.74,0-146.36,1.3-165.55-.53-5.42-7.25-6.06-6.29-6.06-11.63,0-26.82-2.65-23.82,4.92-39.6,3.25-6.78,5.79-3.14,3.92-13.76C24,49.15,16,49.3,10.05,45.31c-3.19-2.15-8.53-12.21,7-12.21,25.4,0,14.34,5.28,23.43,13.54,2.26,2,15.6,6.59,19.94,6.8l108.12,0c6.27-.17,6.48-.93,10.86-3.12,12.88-6.44,3.53,3.24,12-9.21,4.92-7.24,6.11-8,11-8,7.76,0,13.72-1,18.75,2.27,2.82,17.22-17.07,10.86-22.51,16-5.14,4.89.92,9,2.91,13.17,7.29,15.17,4.81,14.39,4.81,38.33,0,5.7-.58,5.86-3.32,9.09-3.18,3.76-2.53,4.13-9.11,4.13ZM63.94,8.33C69.27,7.21,138.76,8,150.51,8c6.84,0,15.05-1.24,19.17,2.64,5.67,5.33,4.92,8,8.23,14,6,10.88,11.18,19.58-11.59,20.68-28.13,1.37-59.17-.3-87.82.07C40.43,45.9,41.38,42.91,53,19.19,55.12,15,58.65,9.45,63.94,8.33ZM41.48,26.86C38.56,27,14.37,23.18,7,26.05-2.42,29.72-1.11,45,3.78,52.64c6.1,1.55,9.77,1.46,15.24,3.72.63,6.81-1.61,11.77-3.15,17.77-2.3,9-1.31,30.14,1.65,38.91,3.32,9.84,2,9.4,2.63,19.53,1,15.93,17.34,11.81,31.92,11.85,28.05.08,17.62-7.07,21.71-19.63,6.74-1.38,75.78-1.42,81.17.15,4.72,12.42-7.72,19.93,23.11,19.51,13.86-.18,28.76,3.43,30.88-10.87,1.1-7.44-.66-10.83,1.81-19.15,8.7-29.25-2-49-1-58.21,4.38-1.81,11.09-2.11,15.19-3.79,4.89-6.91,6.1-22.7-2.94-26.27-10-3.95-24.14.77-33.89,1-3.21-3.86-1.91-3.8-3.78-7.87C172.64-6.25,161.51.93,115.56.93,95.51.93,57-4,49.48,9.27c-1.82,3.23-2,5.09-4.17,8.55-1.78,2.87-2.81,6.36-3.83,9Z"/><path class="cls-1" d="M69.88,96.35c-.35,4.37-.76,3.75.78,7,12.62,1.78,73.82,1.51,87.73.34,1.89-5.88,1.72-7.88-4.7-7.88-22.63,0-63.16-.88-83.81.51Z"/><path class="cls-1" d="M173.81,75.57c-10.46,0-12.13-1.82-13.09,3.06-1.34,6.8,2.83,5.31,14.14,5.31,8.34,0,7.25-1.36,13-4.07,4.57-2.17,8.37-2.84,6.73-9.38-11.64-3.11-3.19,5.08-20.76,5.08Z"/><path class="cls-1" d="M54.14,83.94c9.56,0,15.14,1.44,13.92-5.27-1.5-8.19-15.5,1.83-25.58-6.48-2.88-2.38-10-4.72-8.91,1.44.87,5,13.47,10.31,20.57,10.31Z"/></svg>